#format: frame checksums
#version: 2
#hash: MD5
#tb 0: 1/48000
#media_type 0: audio
#codec_id 0: pcm_s16le
#sample_rate 0: 48000
#channel_layout_name 0: 7.0
#stream#, dts,        pts, duration,     size, hash
0,          0,          0,      240,     3360, 817ba1a34748b927237e2cb4a3305d57
0,        240,        240,      240,     3360, f7461cd52dc126a8e7693c150cd4ee6a
0,        480,        480,      240,     3360, dae186c9cb488cf5de609aa818c03236
0,        720,        720,      240,     3360, 5a116cfe6a52ab298a594f3c2c3e7add
0,        960,        960,      240,     3360, 6d545df305d39b730ad3ee6743528dd8
0,       1200,       1200,      240,     3360, 747265da97c64858519997655c5f4b4a
0,       1440,       1440,      240,     3360, a5c3b53fd2b607ccf195e9b07f58fd67
0,       1680,       1680,      240,     3360, dd3c560c89d9290603268eec9f0b8ce0
0,       1920,       1920,      240,     3360, 416d0d6e40b50a75cc7ebe54871b70de
0,       2160,       2160,      240,     3360, c17c26b9edfffed70f81c19351a1743c
0,       2400,       2400,      240,     3360, 66df0943f8ccda5187a67d557a797c7f
0,       2640,       2640,      240,     3360, fbbf85c3735249869ff02aa91eabf034
0,       2880,       2880,      240,     3360, 400fbcd6ab19708d8ca2c4317261329f
0,       3120,       3120,      240,     3360, 7c3d77abcc91d3490e002024a4d2a1e3
0,       3360,       3360,      240,     3360, f213e30cb16d94833096e12b04786c94
0,       3600,       3600,      240,     3360, 2d3d9f5beef87783bc314a34c0361cec
0,       3840,       3840,      240,     3360, 89aa6f68e47bb5d81d63f0b7054c9f54
0,       4080,       4080,      240,     3360, f88fa7e4ca02210233c2a2633b89f120
0,       4320,       4320,      240,     3360, 6e2ecd312cd98a5c7f25d954514ad3c3
0,       4560,       4560,      240,     3360, 89a3ffa51ef10a9c21cec8db5dcb70a9
0,       4800,       4800,      240,     3360, 0dfd6ea5dc26437379ca986a21d6603a
0,       5040,       5040,      240,     3360, 7f79f42c42b1744f803814a2268863df
0,       5280,       5280,      240,     3360, 5cb7adf0b3899fda4ccec6d1f4d1f06d
0,       5520,       5520,      240,     3360, a8177b7124ebccde6063c5b8b6264486
0,       5760,       5760,      240,     3360, ed70e2dd4df2bc9abf5991e68062e533
0,       6000,       6000,      240,     3360, 46c8dd192affda1031dfe19ed56d8ebf
0,       6240,       6240,      240,     3360, 1a250a6037081e86b337df5c2bfca515
0,       6480,       6480,      240,     3360, fac5a588b6dd94a7036056db22e57da8
0,       6720,       6720,      240,     3360, 7067bf83be2aa6decb173ec583d53f35
0,       6960,       6960,      240,     3360, 7c4186cf303a9454536c3385eab8c4ad
0,       7200,       7200,      240,     3360, 48028c9e25ee07df1399f4308d2a6697
0,       7440,       7440,      240,     3360, 017180eef232b5ddfe867a683e24c40b
0,       7680,       7680,      240,     3360, 1dd3a8653a5a98302c9f3ebb72c77e52
0,       7920,       7920,      240,     3360, 5688dfd0ac2703dce036e4df3dd9de98
0,       8160,       8160,      240,     3360, 6d68dd512076ae38073ff42de3702416
0,       8400,       8400,      240,     3360, 11d0eb5f596d0d0233ebba24af489de5
0,       8640,       8640,      240,     3360, bfd16eaf6265190ee5228f9fb5391eba
0,       8880,       8880,      240,     3360, 06442679bc9e7a7e1715afe2a38d956a
0,       9120,       9120,      240,     3360, 135f50f897854ffb7226e860a218b76b
0,       9360,       9360,      240,     3360, c9434fda029985b6d0ae4a7767523d92
0,       9600,       9600,      240,     3360, 8d588c633241b4697c35058f2d550a6d
0,       9840,       9840,      240,     3360, 91ac73aee84802c8e1960aa57d1fd3e9
0,      10080,      10080,      240,     3360, 3eaa9ce0da77561bda0a9c3e10dcc123
0,      10320,      10320,      240,     3360, 3dd34c7fcb70a04bca6cf4eb8e723667
0,      10560,      10560,      240,     3360, 93c29a765597e86376c057642123e385
0,      10800,      10800,      240,     3360, f208dc2c628a29f1cb0a20de24de9092
0,      11040,      11040,      240,     3360, c99eef84df9247b25a4100157272d5bc
0,      11280,      11280,      240,     3360, 8796f0bf3fe7d8cd91ad61997734eed8
0,      11520,      11520,      240,     3360, f6ee96ef7f951d51bec38e74acf1c6c8
0,      11760,      11760,      240,     3360, 8ff5e55a65c3eec22343eaf08b9a6eab
0,      12000,      12000,      240,     3360, a242984cdd7cd7692833bab01b18d926
0,      12240,      12240,      240,     3360, 4cac6c81e3f98d9a78e3d8b750d4573d
0,      12480,      12480,      240,     3360, 67ae1364d1b7e72249ef3ae7277a5db3
0,      12720,      12720,      240,     3360, fbacba9c80bb8e6e8aac3348a07ea167
0,      12960,      12960,      240,     3360, bd38726669193a86ec5be1624378cfe7
0,      13200,      13200,      240,     3360, 8aa882e1dfe59296497dad2cd8b0b3da
0,      13440,      13440,      240,     3360, 1f4ded3e2f4f7050358455b5225af5f7
0,      13680,      13680,      240,     3360, bf16cf46f20bb82842b36b767400d21f
0,      13920,      13920,      240,     3360, 0445559d5d832a99cc691d3c773fa7ca
0,      14160,      14160,      240,     3360, 2efab23df8e092ca6bd86cf88387df52
0,      14400,      14400,      240,     3360, c8dd4dabe5a79cb461b67af682e446a6
0,      14640,      14640,      240,     3360, 25a5d129642abc5e117ebd1ad16a5b39
0,      14880,      14880,      240,     3360, 17fa66172e0a42afd9540c5dc4348b88
0,      15120,      15120,      240,     3360, 0f092da69a2c3a36864e93837c37d9f2
0,      15360,      15360,      240,     3360, 7b3b0c0637efbbb29960ee1c08f48f38
0,      15600,      15600,      240,     3360, 129f7ef3e9df878cc1b1fb01e5b1c1cc
0,      15840,      15840,      240,     3360, 3bed05a48ceb4a42ea2f8e636396c3a2
0,      16080,      16080,      240,     3360, d654e45d60a0bc399094ff3c63b3c3c8
0,      16320,      16320,      240,     3360, 0586f36c60b8b49a5848cc6eb38b032f
0,      16560,      16560,      240,     3360, 8a06b76fa46a940c9184c9a7d457bd15
0,      16800,      16800,      240,     3360, 414edca16d9dd3ed97ae45002b2fb2ab
0,      17040,      17040,      240,     3360, f6174eb2610d53f619111bd80b42d042
0,      17280,      17280,      240,     3360, 3e304e39ad7418f6bcaa0e3173406696
0,      17520,      17520,      240,     3360, 21c924f0b7b203d47e860554556b6a58
0,      17760,      17760,      240,     3360, 39482789084e4488098c64d6589b4fb9
0,      18000,      18000,      240,     3360, 762f77abe91f5693857ac5f5ccd24052
0,      18240,      18240,      240,     3360, 49c5702238080db04ab13e51c784a4d7
0,      18480,      18480,      240,     3360, 28fc7289ff45616e9fdbbf9dd551fb3b
0,      18720,      18720,      240,     3360, 94273b36341894ad544f30d46c1e38ba
0,      18960,      18960,      240,     3360, 543cd2a0fd7fc4d21053ea435f547b3d
0,      19200,      19200,      240,     3360, ca51327b8fe919d6a4c2516d80c0b2e5
0,      19440,      19440,      240,     3360, f1ae14435a92c50f6fc5626960f93741
0,      19680,      19680,      240,     3360, efd28f629fc8d6cf45927edd69211a68
0,      19920,      19920,      240,     3360, 644527e6240d5be99e03ee51fef0b304
0,      20160,      20160,      240,     3360, 10113c63be3433ac37079d602c22e124
0,      20400,      20400,      240,     3360, 86c91f951caff5349ff69716c5295ee9
0,      20640,      20640,      240,     3360, cffe1ccedc9873600278729f97886193
0,      20880,      20880,      240,     3360, 0ec3ad31c766c6ec333fd75d3bd057f5
0,      21120,      21120,      240,     3360, 55cbf8d6719fd3f14f3fff7caf63bb2d
0,      21360,      21360,      240,     3360, 1ab59747f72ae2bcf180a9292fe0f8cd
0,      21600,      21600,      240,     3360, 77c557b0ac70ed2d895c4cc3d52cf01c
0,      21840,      21840,      240,     3360, b6f77948291cc5fa8c84021b2f42227a
0,      22080,      22080,      240,     3360, 2b1aab24889cf378e564cc214a6b0761
0,      22320,      22320,      240,     3360, 0e40fc69af97fdbd8f4b8e2f62d16f1d
0,      22560,      22560,      240,     3360, 832f130a857fc43010cb0fb820528040
0,      22800,      22800,      240,     3360, df4cc5bed5a307be6fe4637af7cdb4c2
0,      23040,      23040,      240,     3360, 3e4d729829280882c3e1326bf717a161
0,      23280,      23280,      240,     3360, 841f63f8ae78e7a55634153795ae1b11
0,      23520,      23520,      240,     3360, 4a44127834cd3c9f492a78a135c86023
0,      23760,      23760,      240,     3360, b314b5c0118048d396ae0b760cca0aef
